  0
SECTION
  2
HEADER
  9
$ACADVER
  1
AC1014
  9
$HANDSEED
  5
FFFF
  9
$INSUNITS
 70
     0
  9
$MEASUREMENT
 70
     1
  0
ENDSEC
  0
SECTION
  2
TABLES
  0
TABLE
  2
VPORT
  5
8
330
0
100
AcDbSymbolTable
 70
     4
  0
VPORT
  5
2E
330
8
100
AcDbSymbolTableRecord
100
AcDbViewportTableRecord
  2
*ACTIVE
 70
     0
 10
0.0
 20
0.0
 11
1.0
 21
1.0
 12
210.0
 22
148.5
 13
0.0
 23
0.0
 14
10.0
 24
10.0
 15
10.0
 25
10.0
 16
0.0
 26
0.0
 36
1.0
 17
0.0
 27
0.0
 37
0.0
 40
341.0
 41
1.24
 42
50.0
 43
0.0
 44
0.0
 50
0.0
 51
0.0
 71
     0
 72
   100
 73
     1
 74
     3
 75
     0
 76
     0
 77
     0
 78
     0
  0
ENDTAB
  0
TABLE
  2
LTYPE
  5
5
330
0
100
AcDbSymbolTable
 70
     1
  0
LTYPE
  5
14
330
5
100
AcDbSymbolTableRecord
100
AcDbLinetypeTableRecord
  2
BYBLOCK
 70
     0
  3

 72
    65
 73
     0
 40
0.0
  0
LTYPE
  5
15
330
5
100
AcDbSymbolTableRecord
100
AcDbLinetypeTableRecord
  2
BYLAYER
 70
     0
  3

 72
    65
 73
     0
 40
0.0
  0
LTYPE
  5
16
330
5
100
AcDbSymbolTableRecord
100
AcDbLinetypeTableRecord
  2
CONTINUOUS
 70
     0
  3
Solid line
 72
    65
 73
     0
 40
0.0
  0
ENDTAB
  0
TABLE
  2
LAYER
  5
2
100
AcDbSymbolTable
 70
2
  0
LAYER
  5
50
100
AcDbSymbolTableRecord
100
AcDbLayerTableRecord
  2
0
 70
0
  6
CONTINUOUS
  0
LAYER
  5
51
100
AcDbSymbolTableRecord
100
AcDbLayerTableRecord
  2
Image
 70
0
  6
CONTINUOUS
  0
ENDTAB
  0
TABLE
  2
STYLE
  5
3
330
0
100
AcDbSymbolTable
 70
     1
  0
STYLE
  5
11
330
3
100
AcDbSymbolTableRecord
100
AcDbTextStyleTableRecord
  2
STANDARD
 70
     0
 40
0.0
 41
1.0
 50
0.0
 71
     0
 42
2.5
  3
txt
  4

  0
ENDTAB
  0
TABLE
  2
VIEW
  5
6
330
0
100
AcDbSymbolTable
 70
     0
  0
ENDTAB
  0
TABLE
  2
UCS
  5
7
330
0
100
AcDbSymbolTable
 70
     0
  0
ENDTAB
  0
TABLE
  2
APPID
  5
9
330
0
100
AcDbSymbolTable
 70
     2
  0
APPID
  5
12
330
9
100
AcDbSymbolTableRecord
100
AcDbRegAppTableRecord
  2
ACAD
 70
     0
  0
ENDTAB
  0
TABLE
  2
DIMSTYLE
  5
A
330
0
100
AcDbSymbolTable
 70
     1
  0
DIMSTYLE
105
27
330
A
100
AcDbSymbolTableRecord
100
AcDbDimStyleTableRecord
  2
ISO-25
 70
     0
  3

  4

  5

  6

  7

 40
1.0
 41
2.5
 42
0.625
 43
3.75
 44
1.25
 45
0.0
 46
0.0
 47
0.0
 48
0.0
140
2.5
141
2.5
142
0.0
143
0.03937007874016
144
1.0
145
0.0
146
1.0
147
0.625
 71
     0
 72
     0
 73
     0
 74
     0
 75
     0
 76
     0
 77
     1
 78
     8
170
     0
171
     3
172
     1
173
     0
174
     0
175
     0
176
     0
177
     0
178
     0
270
     2
271
     2
272
     2
273
     2
274
     3
340
11
275
     0
280
     0
281
     0
282
     0
283
     0
284
     8
285
     0
286
     0
287
     3
288
     0
  0
ENDTAB
  0
TABLE
  2
BLOCK_RECORD
  5
1
330
0
100
AcDbSymbolTable
 70
     1
  0
BLOCK_RECORD
  5
1F
330
1
100
AcDbSymbolTableRecord
100
AcDbBlockTableRecord
  2
*MODEL_SPACE
  0
BLOCK_RECORD
  5
1B
330
1
100
AcDbSymbolTableRecord
100
AcDbBlockTableRecord
  2
*PAPER_SPACE
  0
ENDTAB
  0
ENDSEC
  0
SECTION
  2
BLOCKS
  0
BLOCK
  5
20
330
1F
100
AcDbEntity
  8
0
100
AcDbBlockBegin
  2
*MODEL_SPACE
 70
     0
 10
0.0
 20
0.0
 30
0.0
  3
*MODEL_SPACE
  1

  0
ENDBLK
  5
21
330
1F
100
AcDbEntity
  8
0
100
AcDbBlockEnd
  0
BLOCK
  5
1C
330
1B
100
AcDbEntity
 67
     1
  8
0
100
AcDbBlockBegin
  2
*PAPER_SPACE
  1

  0
ENDBLK
  5
1D
330
1B
100
AcDbEntity
 67
     1
  8
0
100
AcDbBlockEnd
  0
ENDSEC
  0
SECTION
  2
ENTITIES
  0
SPLINE
  5
100
100
AcDbEntity
  8
Image
 62
7
100
AcDbSpline
 70
8
 71
3
 72
8
 73
4
 74
0
 40
0
 40
0
 40
0
 40
0
 40
1
 40
1
 40
1
 40
1
 10
738.930340
 20
442.391450
 30
0.0
 10
716.292340
 20
446.678260
 30
0.0
 10
697.922570
 20
462.257850
 30
0.0
 10
690.627610
 20
483.357490
 30
0.0
  0
SPLINE
  5
101
100
AcDbEntity
  8
Image
 62
7
100
AcDbSpline
 70
8
 71
3
 72
8
 73
4
 74
0
 40
0
 40
0
 40
0
 40
0
 40
1
 40
1
 40
1
 40
1
 10
690.627610
 20
483.357490
 30
0.0
 10
688.126480
 20
490.591660
 30
0.0
 10
687.859270
 20
492.697700
 30
0.0
 10
687.836360
 20
505.357490
 30
0.0
  0
SPLINE
  5
102
100
AcDbEntity
  8
Image
 62
7
100
AcDbSpline
 70
8
 71
3
 72
8
 73
4
 74
0
 40
0
 40
0
 40
0
 40
0
 40
1
 40
1
 40
1
 40
1
 10
687.836360
 20
505.357490
 30
0.0
 10
687.807160
 20
521.512720
 30
0.0
 10
689.595860
 20
529.056700
 30
0.0
 10
695.898050
 20
539.357490
 30
0.0
  0
SPLINE
  5
103
100
AcDbEntity
  8
Image
 62
7
100
AcDbSpline
 70
8
 71
3
 72
8
 73
4
 74
0
 40
0
 40
0
 40
0
 40
0
 40
1
 40
1
 40
1
 40
1
 10
695.898050
 20
539.357490
 30
0.0
 10
697.917040
 20
542.657490
 30
0.0
 10
699.585910
 20
545.900200
 30
0.0
 10
699.606650
 20
546.563500
 30
0.0
  0
SPLINE
  5
104
100
AcDbEntity
  8
Image
 62
7
100
AcDbSpline
 70
8
 71
3
 72
8
 73
4
 74
0
 40
0
 40
0
 40
0
 40
0
 40
1
 40
1
 40
1
 40
1
 10
699.606650
 20
546.563500
 30
0.0
 10
699.627350
 20
547.226810
 30
0.0
 10
699.943680
 20
547.584520
 30
0.0
 10
700.309520
 20
547.358420
 30
0.0
  0
SPLINE
  5
105
100
AcDbEntity
  8
Image
 62
7
100
AcDbSpline
 70
8
 71
3
 72
8
 73
4
 74
0
 40
0
 40
0
 40
0
 40
0
 40
1
 40
1
 40
1
 40
1
 10
700.309520
 20
547.358420
 30
0.0
 10
700.675360
 20
547.132320
 30
0.0
 10
703.187860
 20
549.208690
 30
0.0
 10
705.892850
 20
551.972580
 30
0.0
  0
SPLINE
  5
106
100
AcDbEntity
  8
Image
 62
7
100
AcDbSpline
 70
8
 71
3
 72
8
 73
4
 74
0
 40
0
 40
0
 40
0
 40
0
 40
1
 40
1
 40
1
 40
1
 10
705.892850
 20
551.972580
 30
0.0
 10
713.762090
 20
560.013170
 30
0.0
 10
724.376520
 20
565.279640
 30
0.0
 10
737.997840
 20
567.901840
 30
0.0
  0
SPLINE
  5
107
100
AcDbEntity
  8
Image
 62
7
100
AcDbSpline
 70
8
 71
3
 72
8
 73
4
 74
0
 40
0
 40
0
 40
0
 40
0
 40
1
 40
1
 40
1
 40
1
 10
737.997840
 20
567.901840
 30
0.0
 10
747.382360
 20
569.708420
 30
0.0
 10
769.187150
 20
568.667320
 30
0.0
 10
777.311020
 20
566.024770
 30
0.0
  0
SPLINE
  5
108
100
AcDbEntity
  8
Image
 62
7
100
AcDbSpline
 70
8
 71
3
 72
8
 73
4
 74
0
 40
0
 40
0
 40
0
 40
0
 40
1
 40
1
 40
1
 40
1
 10
777.311020
 20
566.024770
 30
0.0
 10
796.369480
 20
559.825400
 30
0.0
 10
810.854510
 20
545.427280
 30
0.0
 10
817.676310
 20
525.901660
 30
0.0
  0
SPLINE
  5
109
100
AcDbEntity
  8
Image
 62
7
100
AcDbSpline
 70
8
 71
3
 72
8
 73
4
 74
0
 40
0
 40
0
 40
0
 40
0
 40
1
 40
1
 40
1
 40
1
 10
817.676310
 20
525.901660
 30
0.0
 10
820.261300
 20
518.502790
 30
0.0
 10
820.670860
 20
515.882990
 30
0.0
 10
820.731720
 20
506.357490
 30
0.0
  0
SPLINE
  5
10a
100
AcDbEntity
  8
Image
 62
7
100
AcDbSpline
 70
8
 71
3
 72
8
 73
4
 74
0
 40
0
 40
0
 40
0
 40
0
 40
1
 40
1
 40
1
 40
1
 10
820.731720
 20
506.357490
 30
0.0
 10
820.815120
 20
493.308070
 30
0.0
 10
819.498090
 20
487.283810
 30
0.0
 10
814.063870
 20
475.857490
 30
0.0
  0
SPLINE
  5
10b
100
AcDbEntity
  8
Image
 62
7
100
AcDbSpline
 70
8
 71
3
 72
8
 73
4
 74
0
 40
0
 40
0
 40
0
 40
0
 40
1
 40
1
 40
1
 40
1
 10
814.063870
 20
475.857490
 30
0.0
 10
806.977380
 20
460.956980
 30
0.0
 10
792.822500
 20
449.122430
 30
0.0
 10
775.811020
 20
443.875210
 30
0.0
  0
SPLINE
  5
10c
100
AcDbEntity
  8
Image
 62
7
100
AcDbSpline
 70
8
 71
3
 72
8
 73
4
 74
0
 40
0
 40
0
 40
0
 40
0
 40
1
 40
1
 40
1
 40
1
 10
775.811020
 20
443.875210
 30
0.0
 10
766.546490
 20
441.017560
 30
0.0
 10
749.753470
 20
440.341950
 30
0.0
 10
738.930340
 20
442.391450
 30
0.0
  0
SPLINE
  5
10d
100
AcDbEntity
  8
Image
 62
7
100
AcDbSpline
 70
8
 71
3
 72
8
 73
4
 74
0
 40
0
 40
0
 40
0
 40
0
 40
1
 40
1
 40
1
 40
1
 10
772.311020
 20
453.378700
 30
0.0
 10
790.267230
 20
458.829380
 30
0.0
 10
802.660810
 20
471.368700
 30
0.0
 10
807.871630
 20
489.357490
 30
0.0
  0
SPLINE
  5
10e
100
AcDbEntity
  8
Image
 62
7
100
AcDbSpline
 70
8
 71
3
 72
8
 73
4
 74
0
 40
0
 40
0
 40
0
 40
0
 40
1
 40
1
 40
1
 40
1
 10
807.871630
 20
489.357490
 30
0.0
 10
810.254410
 20
497.583300
 30
0.0
 10
810.219900
 20
513.281520
 30
0.0
 10
807.800430
 20
521.736490
 30
0.0
  0
SPLINE
  5
10f
100
AcDbEntity
  8
Image
 62
7
100
AcDbSpline
 70
8
 71
3
 72
8
 73
4
 74
0
 40
0
 40
0
 40
0
 40
0
 40
1
 40
1
 40
1
 40
1
 10
807.800430
 20
521.736490
 30
0.0
 10
803.579180
 20
536.488040
 30
0.0
 10
791.068240
 20
549.672500
 30
0.0
 10
775.810980
 20
555.448060
 30
0.0
  0
SPLINE
  5
110
100
AcDbEntity
  8
Image
 62
7
100
AcDbSpline
 70
8
 71
3
 72
8
 73
4
 74
0
 40
0
 40
0
 40
0
 40
0
 40
1
 40
1
 40
1
 40
1
 10
775.810980
 20
555.448060
 30
0.0
 10
761.767520
 20
560.764140
 30
0.0
 10
737.494950
 20
559.583450
 30
0.0
 10
724.496130
 20
552.951950
 30
0.0
  0
SPLINE
  5
111
100
AcDbEntity
  8
Image
 62
7
100
AcDbSpline
 70
8
 71
3
 72
8
 73
4
 74
0
 40
0
 40
0
 40
0
 40
0
 40
1
 40
1
 40
1
 40
1
 10
724.496130
 20
552.951950
 30
0.0
 10
719.083310
 20
550.190530
 30
0.0
 10
710.123800
 20
541.799250
 30
0.0
 10
706.411740
 20
536.014510
 30
0.0
  0
SPLINE
  5
112
100
AcDbEntity
  8
Image
 62
7
100
AcDbSpline
 70
8
 71
3
 72
8
 73
4
 74
0
 40
0
 40
0
 40
0
 40
0
 40
1
 40
1
 40
1
 40
1
 10
706.411740
 20
536.014510
 30
0.0
 10
697.017630
 20
521.375050
 30
0.0
 10
695.653250
 20
496.698180
 30
0.0
 10
703.347370
 20
480.590660
 30
0.0
  0
SPLINE
  5
113
100
AcDbEntity
  8
Image
 62
7
100
AcDbSpline
 70
8
 71
3
 72
8
 73
4
 74
0
 40
0
 40
0
 40
0
 40
0
 40
1
 40
1
 40
1
 40
1
 10
703.347370
 20
480.590660
 30
0.0
 10
712.757450
 20
460.890800
 30
0.0
 10
731.761450
 20
450.502280
 30
0.0
 10
756.810980
 20
451.364820
 30
0.0
  0
SPLINE
  5
114
100
AcDbEntity
  8
Image
 62
7
100
AcDbSpline
 70
8
 71
3
 72
8
 73
4
 74
0
 40
0
 40
0
 40
0
 40
0
 40
1
 40
1
 40
1
 40
1
 10
756.810980
 20
451.364820
 30
0.0
 10
762.310980
 20
451.554210
 30
0.0
 10
769.285980
 20
452.460450
 30
0.0
 10
772.310980
 20
453.378700
 30
0.0
  0
LWPOLYLINE
  5
115
100
AcDbEntity
  8
Image
 62
7
100
AcDbPolyline
 90
1
 70
1
 10
738.930340
 20
442.391450
 30
0.0
  0
SPLINE
  5
116
100
AcDbEntity
  8
Image
 62
7
100
AcDbSpline
 70
8
 71
3
 72
8
 73
4
 74
0
 40
0
 40
0
 40
0
 40
0
 40
1
 40
1
 40
1
 40
1
 10
1331.311000
 20
441.549060
 30
0.0
 10
1317.129400
 20
443.927050
 30
0.0
 10
1304.939500
 20
449.646120
 30
0.0
 10
1295.603000
 20
458.301970
 30
0.0
  0
SPLINE
  5
117
100
AcDbEntity
  8
Image
 62
7
100
AcDbSpline
 70
8
 71
3
 72
8
 73
4
 74
0
 40
0
 40
0
 40
0
 40
0
 40
1
 40
1
 40
1
 40
1
 10
1295.603000
 20
458.301970
 30
0.0
 10
1287.633300
 20
465.690600
 30
0.0
 10
1282.271900
 20
474.249450
 30
0.0
 10
1278.654800
 20
485.357490
 30
0.0
  0
SPLINE
  5
118
100
AcDbEntity
  8
Image
 62
7
100
AcDbSpline
 70
8
 71
3
 72
8
 73
4
 74
0
 40
0
 40
0
 40
0
 40
0
 40
1
 40
1
 40
1
 40
1
 10
1278.654800
 20
485.357490
 30
0.0
 10
1275.419200
 20
495.294340
 30
0.0
 10
1274.983500
 20
511.433900
 30
0.0
 10
1277.669600
 20
521.857490
 30
0.0
  0
SPLINE
  5
119
100
AcDbEntity
  8
Image
 62
7
100
AcDbSpline
 70
8
 71
3
 72
8
 73
4
 74
0
 40
0
 40
0
 40
0
 40
0
 40
1
 40
1
 40
1
 40
1
 10
1277.669600
 20
521.857490
 30
0.0
 10
1283.613600
 20
544.923970
 30
0.0
 10
1301.098600
 20
562.043860
 30
0.0
 10
1324.008400
 20
567.228630
 30
0.0
  0
SPLINE
  5
11a
100
AcDbEntity
  8
Image
 62
7
100
AcDbSpline
 70
8
 71
3
 72
8
 73
4
 74
0
 40
0
 40
0
 40
0
 40
0
 40
1
 40
1
 40
1
 40
1
 10
1324.008400
 20
567.228630
 30
0.0
 10
1339.740500
 20
570.789000
 30
0.0
 10
1361.988500
 20
568.562180
 30
0.0
 10
1373.180300
 20
562.306970
 30
0.0
  0
SPLINE
  5
11b
100
AcDbEntity
  8
Image
 62
7
100
AcDbSpline
 70
8
 71
3
 72
8
 73
4
 74
0
 40
0
 40
0
 40
0
 40
0
 40
1
 40
1
 40
1
 40
1
 10
1373.180300
 20
562.306970
 30
0.0
 10
1379.621200
 20
558.707060
 30
0.0
 10
1386.243500
 20
553.576700
 30
0.0
 10
1386.280100
 20
552.158380
 30
0.0
  0
SPLINE
  5
11c
100
AcDbEntity
  8
Image
 62
7
100
AcDbSpline
 70
8
 71
3
 72
8
 73
4
 74
0
 40
0
 40
0
 40
0
 40
0
 40
1
 40
1
 40
1
 40
1
 10
1386.280100
 20
552.158380
 30
0.0
 10
1386.297100
 20
551.498870
 30
0.0
 10
1384.801100
 20
549.807650
 30
0.0
 10
1382.955800
 20
548.400110
 30
0.0
  0
LWPOLYLINE
  5
11d
100
AcDbEntity
  8
Image
 62
7
100
AcDbPolyline
 90
1
 70
1
 10
772.310980
 20
453.378700
 30
0.0
  0
SPLINE
  5
11e
100
AcDbEntity
  8
Image
 62
7
100
AcDbSpline
 70
8
 71
3
 72
8
 73
4
 74
0
 40
0
 40
0
 40
0
 40
0
 40
1
 40
1
 40
1
 40
1
 10
1373.205800
 20
550.121980
 30
0.0
 10
1364.257200
 20
556.112690
 30
0.0
 10
1357.885400
 20
558.010840
 30
0.0
 10
1344.748700
 20
558.599280
 30
0.0
  0
SPLINE
  5
11f
100
AcDbEntity
  8
Image
 62
7
100
AcDbSpline
 70
8
 71
3
 72
8
 73
4
 74
0
 40
0
 40
0
 40
0
 40
0
 40
1
 40
1
 40
1
 40
1
 10
1344.748700
 20
558.599280
 30
0.0
 10
1325.801400
 20
559.447990
 30
0.0
 10
1312.654100
 20
554.837160
 30
0.0
 10
1301.141700
 20
543.306050
 30
0.0
  0
SPLINE
  5
120
100
AcDbEntity
  8
Image
 62
7
100
AcDbSpline
 70
8
 71
3
 72
8
 73
4
 74
0
 40
0
 40
0
 40
0
 40
0
 40
1
 40
1
 40
1
 40
1
 10
1301.141700
 20
543.306050
 30
0.0
 10
1287.743800
 20
529.886460
 30
0.0
 10
1282.954800
 20
507.016810
 30
0.0
 10
1289.292800
 20
486.722580
 30
0.0
  0
SPLINE
  5
121
100
AcDbEntity
  8
Image
 62
7
100
AcDbSpline
 70
8
 71
3
 72
8
 73
4
 74
0
 40
0
 40
0
 40
0
 40
0
 40
1
 40
1
 40
1
 40
1
 10
1289.292800
 20
486.722580
 30
0.0
 10
1291.875800
 20
478.451870
 30
0.0
 10
1294.733100
 20
473.889090
 30
0.0
 10
1301.740800
 20
466.844530
 30
0.0
  0
SPLINE
  5
122
100
AcDbEntity
  8
Image
 62
7
100
AcDbSpline
 70
8
 71
3
 72
8
 73
4
 74
0
 40
0
 40
0
 40
0
 40
0
 40
1
 40
1
 40
1
 40
1
 10
1301.740800
 20
466.844530
 30
0.0
 10
1311.359800
 20
457.174820
 30
0.0
 10
1322.899900
 20
452.167590
 30
0.0
 10
1337.811000
 20
451.193730
 30
0.0
  0
SPLINE
  5
123
100
AcDbEntity
  8
Image
 62
7
100
AcDbSpline
 70
8
 71
3
 72
8
 73
4
 74
0
 40
0
 40
0
 40
0
 40
0
 40
1
 40
1
 40
1
 40
1
 10
1337.811000
 20
451.193730
 30
0.0
 10
1352.383100
 20
450.242010
 30
0.0
 10
1369.056600
 20
454.565330
 30
0.0
 10
1377.181900
 20
461.402330
 30
0.0
  0
LWPOLYLINE
  5
124
100
AcDbEntity
  8
Image
 62
7
100
AcDbPolyline
 90
3
 70
0
 10
1382.955800
 20
548.400110
 30
0.0
 10
1379.600500
 20
545.840940
 30
0.0
 10
1373.205800
 20
550.121980
 30
0.0
  0
SPLINE
  5
125
100
AcDbEntity
  8
Image
 62
7
100
AcDbSpline
 70
8
 71
3
 72
8
 73
4
 74
0
 40
0
 40
0
 40
0
 40
0
 40
1
 40
1
 40
1
 40
1
 10
1383.244400
 20
460.665000
 30
0.0
 10
1384.898800
 20
458.845870
 30
0.0
 10
1386.265600
 20
456.800640
 30
0.0
 10
1386.281700
 20
456.120030
 30
0.0
  0
SPLINE
  5
126
100
AcDbEntity
  8
Image
 62
7
100
AcDbSpline
 70
8
 71
3
 72
8
 73
4
 74
0
 40
0
 40
0
 40
0
 40
0
 40
1
 40
1
 40
1
 40
1
 10
1386.281700
 20
456.120030
 30
0.0
 10
1386.354700
 20
453.034860
 30
0.0
 10
1369.096800
 20
444.642800
 30
0.0
 10
1358.103200
 20
442.417610
 30
0.0
  0
SPLINE
  5
127
100
AcDbEntity
  8
Image
 62
7
100
AcDbSpline
 70
8
 71
3
 72
8
 73
4
 74
0
 40
0
 40
0
 40
0
 40
0
 40
1
 40
1
 40
1
 40
1
 10
1358.103200
 20
442.417610
 30
0.0
 10
1351.014900
 20
440.982890
 30
0.0
 10
1337.332600
 20
440.539340
 30
0.0
 10
1331.311000
 20
441.549060
 30
0.0
  0
LWPOLYLINE
  5
128
100
AcDbEntity
  8
Image
 62
7
100
AcDbPolyline
 90
3
 70
0
 10
1377.181900
 20
461.402330
 30
0.0
 10
1380.236400
 20
463.972520
 30
0.0
 10
1383.244400
 20
460.665000
 30
0.0
  0
SPLINE
  5
129
100
AcDbEntity
  8
Image
 62
7
100
AcDbSpline
 70
8
 71
3
 72
8
 73
4
 74
0
 40
0
 40
0
 40
0
 40
0
 40
1
 40
1
 40
1
 40
1
 10
135.196900
 20
457.107490
 30
0.0
 10
135.134100
 20
464.944990
 30
0.0
 10
135.021630
 20
493.069630
 30
0.0
 10
134.946900
 20
519.606680
 30
0.0
  0
LWPOLYLINE
  5
12a
100
AcDbEntity
  8
Image
 62
7
100
AcDbPolyline
 90
1
 70
1
 10
1331.311000
 20
441.549060
 30
0.0
  0
SPLINE
  5
12b
100
AcDbEntity
  8
Image
 62
7
100
AcDbSpline
 70
8
 71
3
 72
8
 73
4
 74
0
 40
0
 40
0
 40
0
 40
0
 40
1
 40
1
 40
1
 40
1
 10
149.340240
 20
560.607490
 30
0.0
 10
163.265740
 20
536.892170
 30
0.0
 10
197.633160
 20
479.848270
 30
0.0
 10
197.855370
 20
480.080890
 30
0.0
  0
SPLINE
  5
12c
100
AcDbEntity
  8
Image
 62
7
100
AcDbSpline
 70
8
 71
3
 72
8
 73
4
 74
0
 40
0
 40
0
 40
0
 40
0
 40
1
 40
1
 40
1
 40
1
 10
197.855370
 20
480.080890
 30
0.0
 10
198.227840
 20
480.470800
 30
0.0
 10
245.076480
 20
558.441770
 30
0.0
 10
248.042100
 20
563.607490
 30
0.0
  0
SPLINE
  5
12d
100
AcDbEntity
  8
Image
 62
7
100
AcDbSpline
 70
8
 71
3
 72
8
 73
4
 74
0
 40
0
 40
0
 40
0
 40
0
 40
1
 40
1
 40
1
 40
1
 10
248.042100
 20
563.607490
 30
0.0
 10
250.391590
 20
567.699980
 30
0.0
 10
250.664140
 20
567.857490
 30
0.0
 10
255.396510
 20
567.857490
 30
0.0
  0
LWPOLYLINE
  5
12e
100
AcDbEntity
  8
Image
 62
7
100
AcDbPolyline
 90
5
 70
0
 10
134.946900
 20
519.606680
 30
0.0
 10
134.811020
 20
567.855880
 30
0.0
 10
139.947050
 20
567.856680
 30
0.0
 10
145.083090
 20
567.857490
 30
0.0
 10
149.340240
 20
560.607490
 30
0.0
  0
SPLINE
  5
12f
100
AcDbEntity
  8
Image
 62
7
100
AcDbSpline
 70
8
 71
3
 72
8
 73
4
 74
0
 40
0
 40
0
 40
0
 40
0
 40
1
 40
1
 40
1
 40
1
 10
250.236820
 20
487.607490
 30
0.0
 10
250.135280
 20
548.834410
 30
0.0
 10
250.178820
 20
547.122620
 30
0.0
 10
248.777160
 20
545.068020
 30
0.0
  0
SPLINE
  5
130
100
AcDbEntity
  8
Image
 62
7
100
AcDbSpline
 70
8
 71
3
 72
8
 73
4
 74
0
 40
0
 40
0
 40
0
 40
0
 40
1
 40
1
 40
1
 40
1
 10
248.777160
 20
545.068020
 30
0.0
 10
248.135370
 20
544.127230
 30
0.0
 10
243.635610
 20
536.607490
 30
0.0
 10
238.777690
 20
528.357490
 30
0.0
  0
SPLINE
  5
131
100
AcDbEntity
  8
Image
 62
7
100
AcDbSpline
 70
8
 71
3
 72
8
 73
4
 74
0
 40
0
 40
0
 40
0
 40
0
 40
1
 40
1
 40
1
 40
1
 10
238.777690
 20
528.357490
 30
0.0
 10
202.759980
 20
467.190150
 30
0.0
 10
199.398090
 20
462.238420
 30
0.0
 10
195.575880
 20
464.725540
 30
0.0
  0
SPLINE
  5
132
100
AcDbEntity
  8
Image
 62
7
100
AcDbSpline
 70
8
 71
3
 72
8
 73
4
 74
0
 40
0
 40
0
 40
0
 40
0
 40
1
 40
1
 40
1
 40
1
 10
195.575880
 20
464.725540
 30
0.0
 10
194.690380
 20
465.301730
 30
0.0
 10
181.680530
 20
486.566530
 30
0.0
 10
155.880950
 20
529.607490
 30
0.0
  0
SPLINE
  5
133
100
AcDbEntity
  8
Image
 62
7
100
AcDbSpline
 70
8
 71
3
 72
8
 73
4
 74
0
 40
0
 40
0
 40
0
 40
0
 40
1
 40
1
 40
1
 40
1
 10
155.880950
 20
529.607490
 30
0.0
 10
150.523640
 20
538.544990
 30
0.0
 10
145.988570
 20
545.857490
 30
0.0
 10
145.803010
 20
545.857490
 30
0.0
  0
SPLINE
  5
134
100
AcDbEntity
  8
Image
 62
7
100
AcDbSpline
 70
8
 71
3
 72
8
 73
4
 74
0
 40
0
 40
0
 40
0
 40
0
 40
1
 40
1
 40
1
 40
1
 10
145.803010
 20
545.857490
 30
0.0
 10
145.617450
 20
545.857490
 30
0.0
 10
145.547380
 20
522.682490
 30
0.0
 10
145.647300
 20
494.357490
 30
0.0
  0
LWPOLYLINE
  5
135
100
AcDbEntity
  8
Image
 62
7
100
AcDbPolyline
 90
7
 70
0
 10
255.396510
 20
567.857490
 30
0.0
 10
260.311020
 20
567.857490
 30
0.0
 10
260.311020
 20
505.357490
 30
0.0
 10
260.311020
 20
442.857490
 30
0.0
 10
255.311020
 20
442.857490
 30
0.0
 10
250.311020
 20
442.857490
 30
0.0
 10
250.236820
 20
487.607490
 30
0.0
  0
LWPOLYLINE
  5
136
100
AcDbEntity
  8
Image
 62
7
100
AcDbPolyline
 90
5
 70
0
 10
145.647300
 20
494.357490
 30
0.0
 10
145.828980
 20
442.857490
 30
0.0
 10
140.569990
 20
442.857490
 30
0.0
 10
135.311020
 20
442.857490
 30
0.0
 10
135.196900
 20
457.107490
 30
0.0
  0
SPLINE
  5
137
100
AcDbEntity
  8
Image
 62
7
100
AcDbSpline
 70
8
 71
3
 72
8
 73
4
 74
0
 40
0
 40
0
 40
0
 40
0
 40
1
 40
1
 40
1
 40
1
 10
309.373520
 20
514.357490
 30
0.0
 10
309.407920
 20
484.932490
 30
0.0
 10
309.466120
 20
456.919990
 30
0.0
 10
309.502830
 20
452.107490
 30
0.0
  0
LWPOLYLINE
  5
138
100
AcDbEntity
  8
Image
 62
7
100
AcDbPolyline
 90
5
 70
0
 10
299.311020
 20
505.305230
 30
0.0
 10
299.311020
 20
567.857490
 30
0.0
 10
304.311020
 20
567.857490
 30
0.0
 10
309.311020
 20
567.857490
 30
0.0
 10
309.373520
 20
514.357490
 30
0.0
  0
LWPOLYLINE
  5
139
100
AcDbEntity
  8
Image
 62
7
100
AcDbPolyline
 90
5
 70
0
 10
309.502830
 20
452.107490
 30
0.0
 10
309.569630
 20
443.357490
 30
0.0
 10
304.440320
 20
443.055230
 30
0.0
 10
299.311020
 20
442.752970
 30
0.0
 10
299.311020
 20
505.305230
 30
0.0
  0
SPLINE
  5
13a
100
AcDbEntity
  8
Image
 62
7
100
AcDbSpline
 70
8
 71
3
 72
8
 73
4
 74
0
 40
0
 40
0
 40
0
 40
0
 40
1
 40
1
 40
1
 40
1
 10
349.242930
 20
567.857530
 30
0.0
 10
352.474380
 20
567.857530
 30
0.0
 10
353.557150
 20
567.320610
 30
0.0
 10
355.320960
 20
564.843570
 30
0.0
  0
SPLINE
  5
13b
100
AcDbEntity
  8
Image
 62
7
100
AcDbSpline
 70
8
 71
3
 72
8
 73
4
 74
0
 40
0
 40
0
 40
0
 40
0
 40
1
 40
1
 40
1
 40
1
 10
355.320960
 20
564.843570
 30
0.0
 10
357.476410
 20
561.816530
 30
0.0
 10
368.369330
 20
548.605480
 30
0.0
 10
412.165100
 20
495.902460
 30
0.0
  0
SPLINE
  5
13c
100
AcDbEntity
  8
Image
 62
7
100
AcDbSpline
 70
8
 71
3
 72
8
 73
4
 74
0
 40
0
 40
0
 40
0
 40
0
 40
1
 40
1
 40
1
 40
1
 10
412.165100
 20
495.902460
 30
0.0
 10
425.170350
 20
480.252170
 30
0.0
 10
436.345270
 20
466.752170
 30
0.0
 10
436.998240
 20
465.902460
 30
0.0
  0
SPLINE
  5
13d
100
AcDbEntity
  8
Image
 62
7
100
AcDbSpline
 70
8
 71
3
 72
8
 73
4
 74
0
 40
0
 40
0
 40
0
 40
0
 40
1
 40
1
 40
1
 40
1
 10
436.998240
 20
465.902460
 30
0.0
 10
437.918930
 20
464.704350
 30
0.0
 10
438.172210
 20
475.918850
 30
0.0
 10
438.126440
 20
515.857530
 30
0.0
  0
LWPOLYLINE
  5
13e
100
AcDbEntity
  8
Image
 62
7
100
AcDbPolyline
 90
3
 70
0
 10
345.311020
 20
505.357530
 30
0.0
 10
345.311020
 20
567.857530
 30
0.0
 10
349.242930
 20
567.857530
 30
0.0
  0
SPLINE
  5
13f
100
AcDbEntity
  8
Image
 62
7
100
AcDbSpline
 70
8
 71
3
 72
8
 73
4
 74
0
 40
0
 40
0
 40
0
 40
0
 40
1
 40
1
 40
1
 40
1
 10
443.189240
 20
567.357530
 30
0.0
 10
446.006230
 20
567.357530
 30
0.0
 10
448.311040
 20
567.020030
 30
0.0
 10
448.311040
 20
566.607530
 30
0.0
  0
LWPOLYLINE
  5
140
100
AcDbEntity
  8
Image
 62
7
100
AcDbPolyline
 90
3
 70
0
 10
438.126440
 20
515.857530
 30
0.0
 10
438.067440
 20
567.357530
 30
0.0
 10
443.189240
 20
567.357530
 30
0.0
  0
SPLINE
  5
141
100
AcDbEntity
  8
Image
 62
7
100
AcDbSpline
 70
8
 71
3
 72
8
 73
4
 74
0
 40
0
 40
0
 40
0
 40
0
 40
1
 40
1
 40
1
 40
1
 10
445.932510
 20
442.857530
 30
0.0
 10
444.285280
 20
442.857530
 30
0.0
 10
442.107370
 20
444.550810
 30
0.0
 10
438.848910
 20
448.364880
 30
0.0
  0
SPLINE
  5
142
100
AcDbEntity
  8
Image
 62
7
100
AcDbSpline
 70
8
 71
3
 72
8
 73
4
 74
0
 40
0
 40
0
 40
0
 40
0
 40
1
 40
1
 40
1
 40
1
 10
438.848910
 20
448.364880
 30
0.0
 10
436.261120
 20
451.393920
 30
0.0
 10
433.661930
 20
453.574390
 30
0.0
 10
433.072930
 20
453.210370
 30
0.0
  0
SPLINE
  5
143
100
AcDbEntity
  8
Image
 62
7
100
AcDbSpline
 70
8
 71
3
 72
8
 73
4
 74
0
 40
0
 40
0
 40
0
 40
0
 40
1
 40
1
 40
1
 40
1
 10
433.072930
 20
453.210370
 30
0.0
 10
432.460400
 20
452.831810
 30
0.0
 10
432.291430
 20
453.016780
 30
0.0
 10
432.678150
 20
453.642510
 30
0.0
  0
SPLINE
  5
144
100
AcDbEntity
  8
Image
 62
7
100
AcDbSpline
 70
8
 71
3
 72
8
 73
4
 74
0
 40
0
 40
0
 40
0
 40
0
 40
1
 40
1
 40
1
 40
1
 10
432.678150
 20
453.642510
 30
0.0
 10
433.055760
 20
454.253500
 30
0.0
 10
420.202920
 20
470.546950
 30
0.0
 10
403.566580
 20
490.547020
 30
0.0
  0
SPLINE
  5
145
100
AcDbEntity
  8
Image
 62
7
100
AcDbSpline
 70
8
 71
3
 72
8
 73
4
 74
0
 40
0
 40
0
 40
0
 40
0
 40
1
 40
1
 40
1
 40
1
 10
403.566580
 20
490.547020
 30
0.0
 10
387.183330
 20
510.242800
 30
0.0
 10
369.823250
 20
531.195030
 30
0.0
 10
364.988620
 20
537.107530
 30
0.0
  0
SPLINE
  5
146
100
AcDbEntity
  8
Image
 62
7
100
AcDbSpline
 70
8
 71
3
 72
8
 73
4
 74
0
 40
0
 40
0
 40
0
 40
0
 40
1
 40
1
 40
1
 40
1
 10
364.988620
 20
537.107530
 30
0.0
 10
360.153980
 20
543.020030
 30
0.0
 10
356.012170
 20
547.857530
 30
0.0
 10
355.784590
 20
547.857530
 30
0.0
  0
SPLINE
  5
147
100
AcDbEntity
  8
Image
 62
7
100
AcDbSpline
 70
8
 71
3
 72
8
 73
4
 74
0
 40
0
 40
0
 40
0
 40
0
 40
1
 40
1
 40
1
 40
1
 10
355.784590
 20
547.857530
 30
0.0
 10
355.557020
 20
547.857530
 30
0.0
 10
355.448200
 20
546.395030
 30
0.0
 10
355.542760
 20
544.607530
 30
0.0
  0
SPLINE
  5
148
100
AcDbEntity
  8
Image
 62
7
100
AcDbSpline
 70
8
 71
3
 72
8
 73
4
 74
0
 40
0
 40
0
 40
0
 40
0
 40
1
 40
1
 40
1
 40
1
 10
355.542760
 20
544.607530
 30
0.0
 10
355.637360
 20
542.820030
 30
0.0
 10
355.623860
 20
519.195030
 30
0.0
 10
355.512860
 20
492.107530
 30
0.0
  0
LWPOLYLINE
  5
149
100
AcDbEntity
  8
Image
 62
7
100
AcDbPolyline
 90
4
 70
0
 10
448.311040
 20
566.607530
 30
0.0
 10
448.311040
 20
504.357530
 30
0.0
 10
448.311040
 20
442.857530
 30
0.0
 10
445.932510
 20
442.857530
 30
0.0
  0
LWPOLYLINE
  5
14a
100
AcDbEntity
  8
Image
 62
7
100
AcDbPolyline
 90
5
 70
0
 10
355.512860
 20
492.107530
 30
0.0
 10
355.311020
 20
442.857530
 30
0.0
 10
350.311020
 20
442.857530
 30
0.0
 10
345.311020
 20
442.857530
 30
0.0
 10
345.311020
 20
505.357530
 30
0.0
  0
SPLINE
  5
14b
100
AcDbEntity
  8
Image
 62
7
100
AcDbSpline
 70
8
 71
3
 72
8
 73
4
 74
0
 40
0
 40
0
 40
0
 40
0
 40
1
 40
1
 40
1
 40
1
 10
534.727450
 20
444.214710
 30
0.0
 10
534.441010
 20
444.961150
 30
0.0
 10
534.342640
 20
472.973650
 30
0.0
 10
534.508840
 20
506.464710
 30
0.0
  0
LWPOLYLINE
  5
14c
100
AcDbEntity
  8
Image
 62
7
100
AcDbPolyline
 90
8
 70
1
 10
488.311020
 20
505.357530
 30
0.0
 10
488.311020
 20
567.857530
 30
0.0
 10
493.811020
 20
567.857530
 30
0.0
 10
499.311020
 20
567.857530
 30
0.0
 10
499.311020
 20
505.357530
 30
0.0
 10
499.311020
 20
442.857530
 30
0.0
 10
493.811020
 20
442.857530
 30
0.0
 10
488.311020
 20
442.857530
 30
0.0
  0
SPLINE
  5
14d
100
AcDbEntity
  8
Image
 62
7
100
AcDbSpline
 70
8
 71
3
 72
8
 73
4
 74
0
 40
0
 40
0
 40
0
 40
0
 40
1
 40
1
 40
1
 40
1
 10
539.511900
 20
567.660320
 30
0.0
 10
543.990290
 20
567.948770
 30
0.0
 10
544.327600
 20
567.783110
 30
0.0
 10
546.638670
 20
564.160320
 30
0.0
  0
SPLINE
  5
14e
100
AcDbEntity
  8
Image
 62
7
100
AcDbSpline
 70
8
 71
3
 72
8
 73
4
 74
0
 40
0
 40
0
 40
0
 40
0
 40
1
 40
1
 40
1
 40
1
 10
546.638670
 20
564.160320
 30
0.0
 10
551.457300
 20
556.606720
 30
0.0
 10
593.310260
 20
485.953300
 30
0.0
 10
594.456850
 20
483.436820
 30
0.0
  0
SPLINE
  5
14f
100
AcDbEntity
  8
Image
 62
7
100
AcDbSpline
 70
8
 71
3
 72
8
 73
4
 74
0
 40
0
 40
0
 40
0
 40
0
 40
1
 40
1
 40
1
 40
1
 10
594.456850
 20
483.436820
 30
0.0
 10
595.103210
 20
482.018210
 30
0.0
 10
595.972650
 20
480.857530
 30
0.0
 10
596.388940
 20
480.857530
 30
0.0
  0
SPLINE
  5
150
100
AcDbEntity
  8
Image
 62
7
100
AcDbSpline
 70
8
 71
3
 72
8
 73
4
 74
0
 40
0
 40
0
 40
0
 40
0
 40
1
 40
1
 40
1
 40
1
 10
596.388940
 20
480.857530
 30
0.0
 10
596.805240
 20
480.857530
 30
0.0
 10
602.414620
 20
489.745030
 30
0.0
 10
608.854250
 20
500.607530
 30
0.0
  0
SPLINE
  5
151
100
AcDbEntity
  8
Image
 62
7
100
AcDbSpline
 70
8
 71
3
 72
8
 73
4
 74
0
 40
0
 40
0
 40
0
 40
0
 40
1
 40
1
 40
1
 40
1
 10
608.854250
 20
500.607530
 30
0.0
 10
615.293880
 20
511.470030
 30
0.0
 10
626.067090
 20
529.582530
 30
0.0
 10
632.794720
 20
540.857530
 30
0.0
  0
SPLINE
  5
152
100
AcDbEntity
  8
Image
 62
7
100
AcDbSpline
 70
8
 71
3
 72
8
 73
4
 74
0
 40
0
 40
0
 40
0
 40
0
 40
1
 40
1
 40
1
 40
1
 10
632.794720
 20
540.857530
 30
0.0
 10
639.522350
 20
552.132530
 30
0.0
 10
645.777280
 20
562.820030
 30
0.0
 10
646.694580
 20
564.607530
 30
0.0
  0
SPLINE
  5
153
100
AcDbEntity
  8
Image
 62
7
100
AcDbSpline
 70
8
 71
3
 72
8
 73
4
 74
0
 40
0
 40
0
 40
0
 40
0
 40
1
 40
1
 40
1
 40
1
 10
646.694580
 20
564.607530
 30
0.0
 10
648.268870
 20
567.675300
 30
0.0
 10
648.669320
 20
567.857530
 30
0.0
 10
653.836700
 20
567.857530
 30
0.0
  0
LWPOLYLINE
  5
154
100
AcDbEntity
  8
Image
 62
7
100
AcDbPolyline
 90
3
 70
0
 10
534.508840
 20
506.464710
 30
0.0
 10
534.811020
 20
567.357530
 30
0.0
 10
539.511900
 20
567.660320
 30
0.0
  0
SPLINE
  5
155
100
AcDbEntity
  8
Image
 62
7
100
AcDbSpline
 70
8
 71
3
 72
8
 73
4
 74
0
 40
0
 40
0
 40
0
 40
0
 40
1
 40
1
 40
1
 40
1
 10
635.811020
 20
525.598650
 30
0.0
 10
629.211020
 20
514.618260
 30
0.0
 10
618.350870
 20
496.383710
 30
0.0
 10
611.677360
 20
485.077430
 30
0.0
  0
SPLINE
  5
156
100
AcDbEntity
  8
Image
 62
7
100
AcDbSpline
 70
8
 71
3
 72
8
 73
4
 74
0
 40
0
 40
0
 40
0
 40
0
 40
1
 40
1
 40
1
 40
1
 10
611.677360
 20
485.077430
 30
0.0
 10
600.871060
 20
466.769350
 30
0.0
 10
599.251900
 20
464.507780
 30
0.0
 10
596.876210
 20
464.403780
 30
0.0
  0
SPLINE
  5
157
100
AcDbEntity
  8
Image
 62
7
100
AcDbSpline
 70
8
 71
3
 72
8
 73
4
 74
0
 40
0
 40
0
 40
0
 40
0
 40
1
 40
1
 40
1
 40
1
 10
596.876210
 20
464.403780
 30
0.0
 10
594.903050
 20
464.317380
 30
0.0
 10
593.737050
 20
465.077080
 30
0.0
 10
592.396720
 20
467.322270
 30
0.0
  0
SPLINE
  5
158
100
AcDbEntity
  8
Image
 62
7
100
AcDbSpline
 70
8
 71
3
 72
8
 73
4
 74
0
 40
0
 40
0
 40
0
 40
0
 40
1
 40
1
 40
1
 40
1
 10
592.396720
 20
467.322270
 30
0.0
 10
591.400130
 20
468.991660
 30
0.0
 10
585.286460
 20
479.357530
 30
0.0
 10
578.810800
 20
490.357530
 30
0.0
  0
SPLINE
  5
159
100
AcDbEntity
  8
Image
 62
7
100
AcDbSpline
 70
8
 71
3
 72
8
 73
4
 74
0
 40
0
 40
0
 40
0
 40
0
 40
1
 40
1
 40
1
 40
1
 10
578.810800
 20
490.357530
 30
0.0
 10
572.335140
 20
501.357530
 30
0.0
 10
562.261060
 20
518.361600
 30
0.0
 10
556.423950
 20
528.144350
 30
0.0
  0
LWPOLYLINE
  5
15a
100
AcDbEntity
  8
Image
 62
7
100
AcDbPolyline
 90
9
 70
0
 10
653.836700
 20
567.857530
 30
0.0
 10
659.311020
 20
567.857530
 30
0.0
 10
659.311020
 20
505.357530
 30
0.0
 10
659.311020
 20
442.857530
 30
0.0
 10
653.820020
 20
442.857530
 30
0.0
 10
648.329020
 20
442.857530
 30
0.0
 10
648.070020
 20
494.210270
 30
0.0
 10
647.811020
 20
545.563000
 30
0.0
 10
635.811020
 20
525.598650
 30
0.0
  0
SPLINE
  5
15b
100
AcDbEntity
  8
Image
 62
7
100
AcDbSpline
 70
8
 71
3
 72
8
 73
4
 74
0
 40
0
 40
0
 40
0
 40
0
 40
1
 40
1
 40
1
 40
1
 10
540.270640
 20
442.857530
 30
0.0
 10
536.963690
 20
442.857530
 30
0.0
 10
535.070370
 20
443.321090
 30
0.0
 10
534.727450
 20
444.214710
 30
0.0
  0
LWPOLYLINE
  5
15c
100
AcDbEntity
  8
Image
 62
7
100
AcDbPolyline
 90
5
 70
0
 10
556.423950
 20
528.144350
 30
0.0
 10
545.811020
 20
545.931180
 30
0.0
 10
545.552020
 20
494.394350
 30
0.0
 10
545.293020
 20
442.857530
 30
0.0
 10
540.270640
 20
442.857530
 30
0.0
  0
LWPOLYLINE
  5
15d
100
AcDbEntity
  8
Image
 62
7
100
AcDbPolyline
 90
1
 70
1
 10
534.727450
 20
444.214710
 30
0.0
  0
SPLINE
  5
15e
100
AcDbEntity
  8
Image
 62
7
100
AcDbSpline
 70
8
 71
3
 72
8
 73
4
 74
0
 40
0
 40
0
 40
0
 40
0
 40
1
 40
1
 40
1
 40
1
 10
880.063020
 20
495.392730
 30
0.0
 10
908.420820
 20
495.426330
 30
0.0
 10
910.072030
 20
495.531850
 30
0.0
 10
915.390600
 20
497.650730
 30
0.0
  0
SPLINE
  5
15f
100
AcDbEntity
  8
Image
 62
7
100
AcDbSpline
 70
8
 71
3
 72
8
 73
4
 74
0
 40
0
 40
0
 40
0
 40
0
 40
1
 40
1
 40
1
 40
1
 10
915.390600
 20
497.650730
 30
0.0
 10
922.970240
 20
500.670400
 30
0.0
 10
928.635080
 20
505.780280
 30
0.0
 10
932.000300
 20
512.633250
 30
0.0
  0
SPLINE
  5
160
100
AcDbEntity
  8
Image
 62
7
100
AcDbSpline
 70
8
 71
3
 72
8
 73
4
 74
0
 40
0
 40
0
 40
0
 40
0
 40
1
 40
1
 40
1
 40
1
 10
932.000300
 20
512.633250
 30
0.0
 10
934.416600
 20
517.553830
 30
0.0
 10
934.809670
 20
519.550880
 30
0.0
 10
934.800030
 20
526.857500
 30
0.0
  0
SPLINE
  5
161
100
AcDbEntity
  8
Image
 62
7
100
AcDbSpline
 70
8
 71
3
 72
8
 73
4
 74
0
 40
0
 40
0
 40
0
 40
0
 40
1
 40
1
 40
1
 40
1
 10
934.800030
 20
526.857500
 30
0.0
 10
934.786930
 20
536.742050
 30
0.0
 10
932.596620
 20
542.408230
 30
0.0
 10
926.497080
 20
548.336240
 30
0.0
  0
SPLINE
  5
162
100
AcDbEntity
  8
Image
 62
7
100
AcDbSpline
 70
8
 71
3
 72
8
 73
4
 74
0
 40
0
 40
0
 40
0
 40
0
 40
1
 40
1
 40
1
 40
1
 10
926.497080
 20
548.336240
 30
0.0
 10
918.055090
 20
556.540830
 30
0.0
 10
911.731340
 20
557.669750
 30
0.0
 10
873.561250
 20
557.786430
 30
0.0
  0
LWPOLYLINE
  5
163
100
AcDbEntity
  8
Image
 62
7
100
AcDbPolyline
 90
3
 70
0
 10
850.312790
 20
469.107530
 30
0.0
 10
850.314790
 20
495.357530
 30
0.0
 10
880.063020
 20
495.392730
 30
0.0
  0
SPLINE
  5
164
100
AcDbEntity
  8
Image
 62
7
100
AcDbSpline
 70
8
 71
3
 72
8
 73
4
 74
0
 40
0
 40
0
 40
0
 40
0
 40
1
 40
1
 40
1
 40
1
 10
877.723050
 20
567.857530
 30
0.0
 10
909.449160
 20
567.857530
 30
0.0
 10
917.417110
 20
566.830890
 30
0.0
 10
926.121290
 20
561.621630
 30
0.0
  0
SPLINE
  5
165
100
AcDbEntity
  8
Image
 62
7
100
AcDbSpline
 70
8
 71
3
 72
8
 73
4
 74
0
 40
0
 40
0
 40
0
 40
0
 40
1
 40
1
 40
1
 40
1
 10
926.121290
 20
561.621630
 30
0.0
 10
936.813720
 20
555.222430
 30
0.0
 10
942.827390
 20
546.660930
 30
0.0
 10
945.408940
 20
534.162310
 30
0.0
  0
SPLINE
  5
166
100
AcDbEntity
  8
Image
 62
7
100
AcDbSpline
 70
8
 71
3
 72
8
 73
4
 74
0
 40
0
 40
0
 40
0
 40
0
 40
1
 40
1
 40
1
 40
1
 10
945.408940
 20
534.162310
 30
0.0
 10
946.906110
 20
526.913740
 30
0.0
 10
945.575960
 20
515.505570
 30
0.0
 10
942.395260
 20
508.315070
 30
0.0
  0
SPLINE
  5
167
100
AcDbEntity
  8
Image
 62
7
100
AcDbSpline
 70
8
 71
3
 72
8
 73
4
 74
0
 40
0
 40
0
 40
0
 40
0
 40
1
 40
1
 40
1
 40
1
 10
942.395260
 20
508.315070
 30
0.0
 10
938.759680
 20
500.096230
 30
0.0
 10
927.461300
 20
490.417340
 30
0.0
 10
919.061020
 20
488.325520
 30
0.0
  0
SPLINE
  5
168
100
AcDbEntity
  8
Image
 62
7
100
AcDbSpline
 70
8
 71
3
 72
8
 73
4
 74
0
 40
0
 40
0
 40
0
 40
0
 40
1
 40
1
 40
1
 40
1
 10
919.061020
 20
488.325520
 30
0.0
 10
917.548520
 20
487.948870
 30
0.0
 10
916.311700
 20
487.352000
 30
0.0
 10
916.312530
 20
486.999120
 30
0.0
  0
SPLINE
  5
169
100
AcDbEntity
  8
Image
 62
7
100
AcDbSpline
 70
8
 71
3
 72
8
 73
4
 74
0
 40
0
 40
0
 40
0
 40
0
 40
1
 40
1
 40
1
 40
1
 10
916.312530
 20
486.999120
 30
0.0
 10
916.313360
 20
486.646250
 30
0.0
 10
923.467980
 20
476.824660
 30
0.0
 10
932.211700
 20
465.173370
 30
0.0
  0
SPLINE
  5
16a
100
AcDbEntity
  8
Image
 62
7
100
AcDbSpline
 70
8
 71
3
 72
8
 73
4
 74
0
 40
0
 40
0
 40
0
 40
0
 40
1
 40
1
 40
1
 40
1
 10
932.211700
 20
465.173370
 30
0.0
 10
940.955420
 20
453.522090
 30
0.0
 10
947.854740
 20
443.734590
 30
0.0
 10
947.543530
 20
443.423370
 30
0.0
  0
SPLINE
  5
16b
100
AcDbEntity
  8
Image
 62
7
100
AcDbSpline
 70
8
 71
3
 72
8
 73
4
 74
0
 40
0
 40
0
 40
0
 40
0
 40
1
 40
1
 40
1
 40
1
 10
947.543530
 20
443.423370
 30
0.0
 10
947.232320
 20
443.112160
 30
0.0
 10
944.465190
 20
442.878650
 30
0.0
 10
941.394350
 20
442.904470
 30
0.0
  0
LWPOLYLINE
  5
16c
100
AcDbEntity
  8
Image
 62
7
100
AcDbPolyline
 90
5
 70
0
 10
873.561250
 20
557.786430
 30
0.0
 10
850.311020
 20
557.857530
 30
0.0
 10
850.311020
 20
562.857530
 30
0.0
 10
850.311020
 20
567.857530
 30
0.0
 10
877.723050
 20
567.857530
 30
0.0
  0
LWPOLYLINE
  5
16d
100
AcDbEntity
  8
Image
 62
7
100
AcDbPolyline
 90
11
 70
0
 10
941.394350
 20
442.904470
 30
0.0
 10
935.811020
 20
442.951370
 30
0.0
 10
920.368970
 20
463.904430
 30
0.0
 10
904.926920
 20
484.857490
 30
0.0
 10
882.868970
 20
484.858490
 30
0.0
 10
860.811020
 20
484.859490
 30
0.0
 10
861.117150
 20
463.858400
 30
0.0
 10
861.423280
 20
442.857490
 30
0.0
 10
855.867150
 20
442.857490
 30
0.0
 10
850.311020
 20
442.857490
 30
0.0
 10
850.312790
 20
469.107530
 30
0.0
  0
SPLINE
  5
16e
100
AcDbEntity
  8
Image
 62
7
100
AcDbSpline
 70
8
 71
3
 72
8
 73
4
 74
0
 40
0
 40
0
 40
0
 40
0
 40
1
 40
1
 40
1
 40
1
 10
996.061010
 20
494.877330
 30
0.0
 10
1011.323500
 20
494.888230
 30
0.0
 10
1026.864200
 20
495.338620
 30
0.0
 10
1030.596000
 20
495.878220
 30
0.0
  0
SPLINE
  5
16f
100
AcDbEntity
  8
Image
 62
7
100
AcDbSpline
 70
8
 71
3
 72
8
 73
4
 74
0
 40
0
 40
0
 40
0
 40
0
 40
1
 40
1
 40
1
 40
1
 10
1030.596000
 20
495.878220
 30
0.0
 10
1048.709400
 20
498.497340
 30
0.0
 10
1059.340200
 20
511.229440
 30
0.0
 10
1058.083100
 20
528.798670
 30
0.0
  0
SPLINE
  5
170
100
AcDbEntity
  8
Image
 62
7
100
AcDbSpline
 70
8
 71
3
 72
8
 73
4
 74
0
 40
0
 40
0
 40
0
 40
0
 40
1
 40
1
 40
1
 40
1
 10
1058.083100
 20
528.798670
 30
0.0
 10
1056.923100
 20
545.011270
 30
0.0
 10
1046.811500
 20
554.981660
 30
0.0
 10
1029.504200
 20
556.978610
 30
0.0
  0
SPLINE
  5
171
100
AcDbEntity
  8
Image
 62
7
100
AcDbSpline
 70
8
 71
3
 72
8
 73
4
 74
0
 40
0
 40
0
 40
0
 40
0
 40
1
 40
1
 40
1
 40
1
 10
1029.504200
 20
556.978610
 30
0.0
 10
1025.272900
 20
557.466820
 30
0.0
 10
1009.886000
 20
557.833890
 30
0.0
 10
995.311010
 20
557.794320
 30
0.0
  0
LWPOLYLINE
  5
172
100
AcDbEntity
  8
Image
 62
7
100
AcDbPolyline
 90
3
 70
0
 10
968.311010
 20
468.857530
 30
0.0
 10
968.311010
 20
494.857530
 30
0.0
 10
996.061010
 20
494.877330
 30
0.0
  0
SPLINE
  5
173
100
AcDbEntity
  8
Image
 62
7
100
AcDbSpline
 70
8
 71
3
 72
8
 73
4
 74
0
 40
0
 40
0
 40
0
 40
0
 40
1
 40
1
 40
1
 40
1
 10
999.507810
 20
567.816110
 30
0.0
 10
1016.724600
 20
567.764510
 30
0.0
 10
1033.061000
 20
567.301660
 30
0.0
 10
1035.811000
 20
566.787430
 30
0.0
  0
SPLINE
  5
174
100
AcDbEntity
  8
Image
 62
7
100
AcDbSpline
 70
8
 71
3
 72
8
 73
4
 74
0
 40
0
 40
0
 40
0
 40
0
 40
1
 40
1
 40
1
 40
1
 10
1035.811000
 20
566.787430
 30
0.0
 10
1042.929800
 20
565.456270
 30
0.0
 10
1052.458000
 20
560.508160
 30
0.0
 10
1057.685200
 20
555.427910
 30
0.0
  0
SPLINE
  5
175
100
AcDbEntity
  8
Image
 62
7
100
AcDbSpline
 70
8
 71
3
 72
8
 73
4
 74
0
 40
0
 40
0
 40
0
 40
0
 40
1
 40
1
 40
1
 40
1
 10
1057.685200
 20
555.427910
 30
0.0
 10
1071.802300
 20
541.707650
 30
0.0
 10
1073.210100
 20
516.702580
 30
0.0
 10
1060.782800
 20
500.409490
 30
0.0
  0
SPLINE
  5
176
100
AcDbEntity
  8
Image
 62
7
100
AcDbSpline
 70
8
 71
3
 72
8
 73
4
 74
0
 40
0
 40
0
 40
0
 40
0
 40
1
 40
1
 40
1
 40
1
 10
1060.782800
 20
500.409490
 30
0.0
 10
1057.246600
 20
495.773350
 30
0.0
 10
1049.163400
 20
490.526470
 30
0.0
 10
1041.257000
 20
487.735180
 30
0.0
  0
SPLINE
  5
177
100
AcDbEntity
  8
Image
 62
7
100
AcDbSpline
 70
8
 71
3
 72
8
 73
4
 74
0
 40
0
 40
0
 40
0
 40
0
 40
1
 40
1
 40
1
 40
1
 10
1041.257000
 20
487.735180
 30
0.0
 10
1035.276200
 20
485.623700
 30
0.0
 10
1032.808200
 20
485.430980
 30
0.0
 10
1007.061000
 20
485.065040
 30
0.0
  0
LWPOLYLINE
  5
178
100
AcDbEntity
  8
Image
 62
7
100
AcDbPolyline
 90
5
 70
0
 10
995.311010
 20
557.794320
 30
0.0
 10
968.811010
 20
557.722420
 30
0.0
 10
968.507810
 20
562.816120
 30
0.0
 10
968.204710
 20
567.909810
 30
0.0
 10
999.507810
 20
567.816110
 30
0.0
  0
SPLINE
  5
179
100
AcDbEntity
  8
Image
 62
7
100
AcDbSpline
 70
8
 71
3
 72
8
 73
4
 74
0
 40
0
 40
0
 40
0
 40
0
 40
1
 40
1
 40
1
 40
1
 10
1095.311000
 20
504.357530
 30
0.0
 10
1095.311000
 20
538.182530
 30
0.0
 10
1095.423500
 20
566.195030
 30
0.0
 10
1095.561000
 20
566.607530
 30
0.0
  0
SPLINE
  5
17a
100
AcDbEntity
  8
Image
 62
7
100
AcDbSpline
 70
8
 71
3
 72
8
 73
4
 74
0
 40
0
 40
0
 40
0
 40
0
 40
1
 40
1
 40
1
 40
1
 10
1095.561000
 20
566.607530
 30
0.0
 10
1095.903800
 20
567.635850
 30
0.0
 10
1107.311000
 20
567.817970
 30
0.0
 10
1107.311000
 20
566.795130
 30
0.0
  0
SPLINE
  5
17b
100
AcDbEntity
  8
Image
 62
7
100
AcDbSpline
 70
8
 71
3
 72
8
 73
4
 74
0
 40
0
 40
0
 40
0
 40
0
 40
1
 40
1
 40
1
 40
1
 10
1107.311000
 20
566.795130
 30
0.0
 10
1107.311000
 20
566.344370
 30
0.0
 10
1106.861000
 20
565.697450
 30
0.0
 10
1106.311000
 20
565.357530
 30
0.0
  0
SPLINE
  5
17c
100
AcDbEntity
  8
Image
 62
7
100
AcDbSpline
 70
8
 71
3
 72
8
 73
4
 74
0
 40
0
 40
0
 40
0
 40
0
 40
1
 40
1
 40
1
 40
1
 10
1106.311000
 20
565.357530
 30
0.0
 10
1105.103700
 20
564.611390
 30
0.0
 10
1104.943400
 20
509.984810
 30
0.0
 10
1106.143000
 20
508.095180
 30
0.0
  0
SPLINE
  5
17d
100
AcDbEntity
  8
Image
 62
7
100
AcDbSpline
 70
8
 71
3
 72
8
 73
4
 74
0
 40
0
 40
0
 40
0
 40
0
 40
1
 40
1
 40
1
 40
1
 10
1106.143000
 20
508.095180
 30
0.0
 10
1106.769800
 20
507.107690
 30
0.0
 10
1115.095100
 20
506.889950
 30
0.0
 10
1144.377700
 20
507.095180
 30
0.0
  0
LWPOLYLINE
  5
17e
100
AcDbEntity
  8
Image
 62
7
100
AcDbPolyline
 90
7
 70
0
 10
1007.061000
 20
485.065040
 30
0.0
 10
979.311010
 20
484.670600
 30
0.0
 10
979.311010
 20
463.764060
 30
0.0
 10
979.311010
 20
442.857530
 30
0.0
 10
973.811010
 20
442.857530
 30
0.0
 10
968.311010
 20
442.857530
 30
0.0
 10
968.311010
 20
468.857530
 30
0.0
  0
SPLINE
  5
17f
100
AcDbEntity
  8
Image
 62
7
100
AcDbSpline
 70
8
 71
3
 72
8
 73
4
 74
0
 40
0
 40
0
 40
0
 40
0
 40
1
 40
1
 40
1
 40
1
 10
1182.039400
 20
536.357530
 30
0.0
 10
1182.164900
 20
552.307530
 30
0.0
 10
1182.277400
 20
565.943550
 30
0.0
 10
1182.289400
 20
566.659790
 30
0.0
  0
SPLINE
  5
180
100
AcDbEntity
  8
Image
 62
7
100
AcDbSpline
 70
8
 71
3
 72
8
 73
4
 74
0
 40
0
 40
0
 40
0
 40
0
 40
1
 40
1
 40
1
 40
1
 10
1182.289400
 20
566.659790
 30
0.0
 10
1182.304400
 20
567.594600
 30
0.0
 10
1183.727500
 20
567.876760
 30
0.0
 10
1187.331100
 20
567.659790
 30
0.0
  0
LWPOLYLINE
  5
181
100
AcDbEntity
  8
Image
 62
7
100
AcDbPolyline
 90
3
 70
0
 10
1144.377700
 20
507.095180
 30
0.0
 10
1181.811000
 20
507.357530
 30
0.0
 10
1182.039400
 20
536.357530
 30
0.0
  0
SPLINE
  5
182
100
AcDbEntity
  8
Image
 62
7
100
AcDbSpline
 70
8
 71
3
 72
8
 73
4
 74
0
 40
0
 40
0
 40
0
 40
0
 40
1
 40
1
 40
1
 40
1
 10
1180.099900
 20
497.195130
 30
0.0
 10
1177.164600
 20
497.928100
 30
0.0
 10
1108.673400
 20
497.930170
 30
0.0
 10
1106.763700
 20
497.197130
 30
0.0
  0
SPLINE
  5
183
100
AcDbEntity
  8
Image
 62
7
100
AcDbSpline
 70
8
 71
3
 72
8
 73
4
 74
0
 40
0
 40
0
 40
0
 40
0
 40
1
 40
1
 40
1
 40
1
 10
1106.763700
 20
497.197130
 30
0.0
 10
1105.555600
 20
496.733550
 30
0.0
 10
1105.320500
 20
492.262030
 30
0.0
 10
1105.320500
 20
469.750320
 30
0.0
  0
LWPOLYLINE
  5
184
100
AcDbEntity
  8
Image
 62
7
100
AcDbPolyline
 90
9
 70
0
 10
1187.331100
 20
567.659790
 30
0.0
 10
1192.351100
 20
567.357530
 30
0.0
 10
1192.351100
 20
505.357530
 30
0.0
 10
1192.351100
 20
443.357530
 30
0.0
 10
1187.272200
 20
443.357530
 30
0.0
 10
1182.193400
 20
443.357530
 30
0.0
 10
1182.286400
 20
469.991740
 30
0.0
 10
1182.379400
 20
496.625940
 30
0.0
 10
1180.099900
 20
497.195130
 30
0.0
  0
LWPOLYLINE
  5
185
100
AcDbEntity
  8
Image
 62
7
100
AcDbPolyline
 90
5
 70
0
 10
1105.320500
 20
469.750320
 30
0.0
 10
1105.320500
 20
442.857530
 30
0.0
 10
1100.320500
 20
442.857530
 30
0.0
 10
1095.320500
 20
442.857530
 30
0.0
 10
1095.311000
 20
504.357530
 30
0.0
  0
SPLINE
  5
186
100
AcDbEntity
  8
Image
 62
7
100
AcDbSpline
 70
8
 71
3
 72
8
 73
4
 74
0
 40
0
 40
0
 40
0
 40
0
 40
1
 40
1
 40
1
 40
1
 10
932.389970
 20
534.440820
 30
0.0
 10
932.437970
 20
535.605770
 30
0.0
 10
932.674910
 20
535.842720
 30
0.0
 10
932.994130
 20
535.044990
 30
0.0
  0
SPLINE
  5
187
100
AcDbEntity
  8
Image
 62
7
100
AcDbSpline
 70
8
 71
3
 72
8
 73
4
 74
0
 40
0
 40
0
 40
0
 40
0
 40
1
 40
1
 40
1
 40
1
 10
932.994130
 20
535.044990
 30
0.0
 10
933.283000
 20
534.323120
 30
0.0
 10
933.247480
 20
533.460610
 30
0.0
 10
932.915230
 20
533.128320
 30
0.0
  0
SPLINE
  5
188
100
AcDbEntity
  8
Image
 62
7
100
AcDbSpline
 70
8
 71
3
 72
8
 73
4
 74
0
 40
0
 40
0
 40
0
 40
0
 40
1
 40
1
 40
1
 40
1
 10
932.915230
 20
533.128320
 30
0.0
 10
932.582940
 20
532.796030
 30
0.0
 10
932.346590
 20
533.386660
 30
0.0
 10
932.390010
 20
534.440820
 30
0.0
  0
LWPOLYLINE
  5
189
100
AcDbEntity
  8
Image
 62
7
100
AcDbPolyline
 90
8
 70
1
 10
1234.311000
 20
505.409790
 30
0.0
 10
1234.311000
 20
567.962050
 30
0.0
 10
1239.561000
 20
567.659790
 30
0.0
 10
1244.811000
 20
567.357530
 30
0.0
 10
1245.068600
 20
505.107530
 30
0.0
 10
1245.326100
 20
442.857530
 30
0.0
 10
1239.818600
 20
442.857530
 30
0.0
 10
1234.311000
 20
442.857530
 30
0.0
  0
LWPOLYLINE
  5
18a
100
AcDbEntity
  8
Image
 62
7
100
AcDbPolyline
 90
1
 70
1
 10
932.390010
 20
534.440820
 30
0.0
  0
ENDSEC
  0
SECTION
  2
OBJECTS
  0
DICTIONARY
  5
C
330
0
100
AcDbDictionary
  3
ACAD_GROUP
350
D
  3
ACAD_MLINESTYLE
350
17
  0
DICTIONARY
  5
D
330
C
100
AcDbDictionary
  0
DICTIONARY
  5
1A
330
C
100
AcDbDictionary
  0
DICTIONARY
  5
17
330
C
100
AcDbDictionary
  3
STANDARD
350
18
  0
DICTIONARY
  5
19
330
C
100
AcDbDictionary
  0
ENDSEC
  0
EOF
